HIERARCHY
ROOT Hips
{
	OFFSET 0.000000 0.000000 0.000000
	CHANNELS 6 Xposition Yposition Zposition Zrotation Yrotation Xrotation 
	JOINT LeftUpLeg_virtual
	{
		OFFSET 0.000000 0.000000 0.000000
		CHANNELS 3 Zrotation Yrotation Xrotation
		JOINT LeftUpLeg
		{
			OFFSET 10.205400 -3.823500 0.155100
			CHANNELS 3 Zrotation Yrotation Xrotation
			JOINT LeftLeg
			{
				OFFSET 0.708757 -12.982077 0.567790
				CHANNELS 3 Zrotation Yrotation Xrotation
				JOINT LeftFoot
				{
					OFFSET -0.708756 -10.717838 -2.184338
					CHANNELS 3 Zrotation Yrotation Xrotation
					JOINT LeftToeBase
					{
						OFFSET 0.108149 -7.191104 7.560241
						CHANNELS 3 Zrotation Yrotation Xrotation
						End Site
						{
							OFFSET 0.000000 0.000000 0.000000
						}
					}
				}
			}
		}
	}
	JOINT RightUpLeg_virtual
	{
		OFFSET 0.000000 0.000000 0.000000
		CHANNELS 3 Zrotation Yrotation Xrotation
		JOINT RightUpLeg
		{
			OFFSET -10.205400 -3.823500 0.005500
			CHANNELS 3 Zrotation Yrotation Xrotation
			JOINT RightLeg
			{
				OFFSET -0.708756 -12.982134 0.610632
				CHANNELS 3 Zrotation Yrotation Xrotation
				JOINT RightFoot
				{
					OFFSET 0.708754 -10.717769 -1.945823
					CHANNELS 3 Zrotation Yrotation Xrotation
					JOINT RightToeBase
					{
						OFFSET -0.108140 -7.191069 7.372968
						CHANNELS 3 Zrotation Yrotation Xrotation
						End Site
						{
							OFFSET 0.000000 0.000000 0.000000
						}
					}
				}
			}
		}
	}
	JOINT Spine_virtual
	{
		OFFSET 0.000000 0.000000 0.000000
		CHANNELS 3 Zrotation Yrotation Xrotation
		JOINT Spine
		{
			OFFSET 0.000000 6.876099 0.125700
			CHANNELS 3 Zrotation Yrotation Xrotation
			JOINT Spine1
			{
				OFFSET 0.000000 8.022060 0.146608
				CHANNELS 3 Zrotation Yrotation Xrotation
				JOINT Spine2
				{
					OFFSET 0.000000 9.168068 0.167552
					CHANNELS 3 Zrotation Yrotation Xrotation
					JOINT Neck_virtual
					{
						OFFSET 0.000000 0.000000 0.000000
						CHANNELS 3 Zrotation Yrotation Xrotation
						JOINT Neck
						{
							OFFSET 0.000000 10.314075 0.188496
							CHANNELS 3 Zrotation Yrotation Xrotation
							JOINT Head
							{
								OFFSET 0.000000 7.643700 -2.377400
								CHANNELS 3 Zrotation Yrotation Xrotation
								End Site
								{
									OFFSET 0.000000 0.000000 0.000000
								}
							}
						}
					}
					JOINT LeftShoulder_virtual
					{
						OFFSET 0.000000 0.000000 0.000000
						CHANNELS 3 Zrotation Yrotation Xrotation
						JOINT LeftShoulder
						{
							OFFSET 4.392200 8.824978 0.174984
							CHANNELS 3 Zrotation Yrotation Xrotation
							JOINT LeftArm
							{
								OFFSET 8.771219 -2.981674 -0.026999
								CHANNELS 3 Zrotation Yrotation Xrotation
								JOINT LeftForeArm
								{
									OFFSET 8.512804 0.000000 -0.000000
									CHANNELS 3 Zrotation Yrotation Xrotation
									JOINT LeftHand
									{
										OFFSET 18.484802 0.000000 -0.000000
										CHANNELS 3 Zrotation Yrotation Xrotation
										End Site
										{
											OFFSET 0.000000 0.000000 0.000000
										}
									}
								}
							}
						}
					}
					JOINT RightShoulder_virtual
					{
						OFFSET 0.000000 0.000000 0.000000
						CHANNELS 3 Zrotation Yrotation Xrotation
						JOINT RightShoulder
						{
							OFFSET -4.392200 8.824993 0.141379
							CHANNELS 3 Zrotation Yrotation Xrotation
							JOINT RightArm
							{
								OFFSET -8.771282 -2.981682 -0.094208
								CHANNELS 3 Zrotation Yrotation Xrotation
								JOINT RightForeArm
								{
									OFFSET -8.494598 0.000000 0.000000
									CHANNELS 3 Zrotation Yrotation Xrotation
									JOINT RightHand
									{
										OFFSET -18.483803 0.000000 0.000001
										CHANNELS 3 Zrotation Yrotation Xrotation
										End Site
										{
											OFFSET 0.000000 0.000000 0.000000
										}
									}
								}
							}
						}
					}
				}
			}
		}
	}
}
MOTION
Frames: 5
Frame Time: 0.033333
12.746044 34.284607 -63.118153 -179.559717 -43.670795 179.063381 -1.277745 -3.412777 8.240957 7.426037 3.752448 -41.278504 7.814736 8.905846 34.159057 -13.473163 0.580636 11.148224 0.000000 0.000000 0.000000 4.282249 -3.090380 7.700091 8.299613 5.306942 -30.376368 -6.700877 3.794068 21.364012 5.246347 1.710127 9.770273 0.000000 0.000000 0.000000 1.685403 -1.005513 -2.325001 -1.045536 1.654787 -4.279283 1.096645 -3.151987 10.406029 -0.002044 -0.032741 -0.105786 1.067998 -1.341182 11.932233 -1.817137 -5.380623 15.288125 0.000000 0.000000 0.000000 2.859110 -0.870276 8.815668 -7.788465 -10.096929 2.902868 -66.103226 25.818344 -34.106772 -176.025928 -75.264013 -173.913528 0.000000 0.000000 0.000000 -1.671036 0.705242 7.816949 27.523989 10.137147 1.519292 51.795633 -13.219075 -32.016672 -168.100641 65.770569 -169.319529 0.000000 0.000000 0.000000 
12.914620 34.331612 -62.522270 -179.643305 -43.760011 179.416625 -1.078288 -3.282221 8.712714 7.231561 3.578156 -41.178329 7.938095 8.939003 34.198644 -12.353415 1.120817 11.718521 0.000000 0.000000 0.000000 4.511163 -2.995919 7.573945 7.564081 5.169251 -31.654935 -6.698280 4.885721 20.479209 5.289138 1.839020 11.809441 0.000000 0.000000 0.000000 1.600750 -0.987099 -1.450308 -1.070892 1.489503 -3.863697 1.185314 -3.087697 10.249437 -0.011502 -0.056973 -0.092273 1.190471 -1.306175 11.811165 -2.266396 -5.339382 15.041796 0.000000 0.000000 0.000000 2.999942 -0.780362 8.756310 -7.379806 -10.118851 2.822590 -66.690616 25.078027 -35.895328 -177.536984 -75.856955 -172.227878 0.000000 0.000000 0.000000 -1.530824 0.760689 7.747156 27.375577 10.269511 1.434079 51.859779 -12.641102 -34.713152 -167.665243 64.739286 -168.697299 0.000000 0.000000 0.000000 
12.969384 34.386059 -61.980583 -179.829783 -43.325679 179.744870 -0.605736 -3.427168 9.176710 6.869015 3.058130 -40.794698 8.538022 8.829708 34.521197 -10.808972 2.002497 12.422783 0.000000 0.000000 0.000000 4.682270 -2.927841 7.454532 6.828169 4.838987 -32.863189 -6.480831 6.375784 19.976425 5.517025 1.927638 13.600343 0.000000 0.000000 0.000000 1.494134 -0.942729 -0.773285 -1.096129 1.458152 -3.547731 1.180329 -2.985821 10.127572 -0.003172 -0.023174 -0.019246 1.228951 -1.329630 11.610492 -2.540662 -5.341231 15.179149 0.000000 0.000000 0.000000 3.095759 -0.777531 8.509248 -7.069568 -10.188750 2.601300 -66.442140 24.422998 -37.299410 -178.939031 -76.840987 -170.924828 0.000000 0.000000 0.000000 -1.443120 0.806897 7.464785 27.021893 10.650301 1.521076 51.916022 -12.613162 -36.544968 -167.588540 63.784213 -168.446781 0.000000 0.000000 0.000000 
12.904707 34.442371 -61.541828 -179.963122 -42.621753 179.898659 -0.237102 -3.611017 9.578804 6.258599 2.049208 -40.133584 9.442324 8.897960 35.777962 -8.647732 3.371936 13.785437 0.000000 0.000000 0.000000 4.736270 -2.661740 7.404429 6.073691 4.441354 -33.748696 -6.143981 7.458232 19.760789 6.086729 2.118439 14.925903 0.000000 0.000000 0.000000 1.347161 -0.817260 -0.386203 -1.041163 1.447221 -3.381699 1.197827 -2.956554 10.000941 -0.047376 -0.007576 -0.023658 1.220323 -1.345636 11.367618 -2.578577 -5.344916 15.620166 0.000000 0.000000 0.000000 3.059939 -0.767579 8.223980 -6.998963 -10.166755 2.391991 -65.777317 24.054270 -37.535851 179.584046 -78.030417 -169.794282 0.000000 0.000000 0.000000 -1.451119 0.794041 7.221393 26.696896 11.225590 1.342708 52.207712 -13.188375 -37.109565 -167.329704 63.442349 -168.002327 0.000000 0.000000 0.000000 
12.720202 34.497360 -61.227745 179.798760 -42.007429 -179.862950 -0.414966 -3.529758 9.550964 5.629930 1.455588 -39.404686 9.514590 8.470059 35.903132 -8.653552 2.842079 13.085041 0.000000 0.000000 0.000000 4.653183 -2.422236 7.505037 5.232910 3.960914 -34.584202 -5.746541 7.948050 20.073824 6.922033 2.389538 15.386282 0.000000 0.000000 0.000000 1.130331 -0.658486 -0.429304 -0.956940 1.356442 -3.498549 1.080396 -3.030937 9.839167 0.030121 -0.019128 0.007660 1.124565 -1.400184 11.187023 -2.492707 -5.327389 16.437752 0.000000 0.000000 0.000000 2.960898 -0.805849 7.917622 -7.199662 -10.122961 2.188861 -64.849655 23.742086 -36.722051 177.940102 -79.476860 -168.684772 0.000000 0.000000 0.000000 -1.582672 0.782564 6.990980 26.368855 11.998478 1.396694 52.791208 -13.817886 -36.607331 -166.612315 63.902232 -167.161831 0.000000 0.000000 0.000000 
